/* XPM */
static char *_a28b222779447f4da202c2c6711126ciJqrK0PbjDzWcHwU[] = {
/* columns rows colors chars-per-pixel */
"32 32 6 1 ",
"  c None",
". c #2F2F2E",
"X c #54443B",
"o c #7C4E2E",
"O c #99643E",
"+ c #B97F56",
/* pixels */
"                                ",
"                                ",
"                                ",
"                                ",
"                                ",
"                                ",
"                                ",
"                                ",
"                                ",
"                                ",
"                                ",
"                                ",
"                                ",
"                                ",
"                                ",
"        ...         ...         ",
"       .+++.       .+++.        ",
"       .oOO.       .oOO.        ",
"       .oOO.........oOO.        ",
"       .oOO++++++++++OO.        ",
"       .oOOOOOOOOOOOOOO.        ",
"       .oOO.........oOO.        ",
"       .oOO.........oOO.        ",
"     XX.oOO++++++++++OO.XX      ",
"    XXX.oOOOOOOOOOOOOOO.XXX     ",
"   XXXX.oOO.........oOO.XXXX    ",
"   XX...ooo.........ooo...XX    ",
"    .......................     ",
"     .....................      ",
"       .................        ",
"          ...........           ",
"                                "
};
