/* XPM */
static char *_c2c5f116665444ad55dafc0b265211fbOaIUH3Gg6sFBkAt[] = {
/* columns rows colors chars-per-pixel */
"32 32 6 1 ",
"  c None",
". c #A22633",
"X c #E43B44",
"o c #F6757A",
"O c #C28569",
"+ c #E8B796",
/* pixels */
"                                ",
"                                ",
"                                ",
"                                ",
"                                ",
"                                ",
"                                ",
"                                ",
"            XXXXXXXXo           ",
"            X..XXo..X           ",
"           XXX.XXoX.Xo          ",
"           XoX.XXoX.Xo          ",
"           XoX.XXoX.Xo          ",
"           XoX.XXoX.Xo          ",
"           XoX.XXoX.Xo          ",
"           XoX.XXoX.Xo          ",
"           XoX.XXoX.Xo          ",
"           XoX.XXoX.Xo          ",
"           XoX.XXoX.Xo          ",
"           XoX.XXoX.Xo          ",
"           XoX.XXoX.Xo          ",
"           XoX.XXoX.Xo          ",
"           XXXXXXXXXXo          ",
"           XXXXXXXXXXo          ",
"               OOO              ",
"               +++              ",
"               +++              ",
"               +++              ",
"               +++              ",
"                                ",
"                                ",
"                                "
};
